<svg viewBox="0 0 56.2 7.2" xmlns="http://www.w3.org/2000/svg" xmlns:xlink="http://www.w3.org/1999/xlink">

    <defs>
        <symbol id="row1">
            <rect x="0" y="0" width="1" height="1"/>
            <rect x="8" y="0" width="1" height="1"/>
            <rect x="9" y="0" width="1" height="1"/>
            <rect x="10" y="0" width="1" height="1"/>
            <rect x="14" y="0" width="1" height="1"/>
            <rect x="15" y="0" width="1" height="1"/>
            <rect x="16" y="0" width="1" height="1"/>
            <rect x="17" y="0" width="1" height="1"/>
            <rect x="18" y="0" width="1" height="1"/>
            <rect x="21" y="0" width="1" height="1"/>
            <rect x="22" y="0" width="1" height="1"/>
            <rect x="23" y="0" width="1" height="1"/>
            <rect x="30" y="0" width="1" height="1"/>
            <rect x="38" y="0" width="1" height="1"/>
            <rect x="39" y="0" width="1" height="1"/>
            <rect x="40" y="0" width="1" height="1"/>
            <rect x="44" y="0" width="1" height="1"/>
            <rect x="45" y="0" width="1" height="1"/>
            <rect x="46" y="0" width="1" height="1"/>
            <rect x="47" y="0" width="1" height="1"/>
            <rect x="52" y="0" width="1" height="1"/>
            <rect x="53" y="0" width="1" height="1"/>
            <rect x="54" y="0" width="1" height="1"/>
            <rect x="55" y="0" width="1" height="1"/>

            <rect x="0" y="1" width="1" height="1"/>
            <rect x="7" y="1" width="1" height="1"/>
            <rect x="11" y="1" width="1" height="1"/>
            <rect x="14" y="1" width="1" height="1"/>
            <rect x="22" y="1" width="1" height="1"/>
            <rect x="30" y="1" width="1" height="1"/>
            <rect x="37" y="1" width="1" height="1"/>
            <rect x="41" y="1" width="1" height="1"/>
            <rect x="44" y="1" width="1" height="1"/>
            <rect x="48" y="1" width="1" height="1"/>
            <rect x="51" y="1" width="1" height="1"/>
        </symbol>

        <symbol id="row2">
            <rect x="0" y="2" width="1" height="1"/>
            <rect x="7" y="2" width="1" height="1"/>
            <rect x="11" y="2" width="1" height="1"/>
            <rect x="14" y="2" width="1" height="1"/>
            <rect x="22" y="2" width="1" height="1"/>
            <rect x="30" y="2" width="1" height="1"/>
            <rect x="37" y="2" width="1" height="1"/>
            <rect x="41" y="2" width="1" height="1"/>
            <rect x="44" y="2" width="1" height="1"/>
            <rect x="48" y="2" width="1" height="1"/>
            <rect x="51" y="2" width="1" height="1"/>

            <rect x="0" y="3" width="1" height="1"/>
            <rect x="7" y="3" width="1" height="1"/>
            <rect x="11" y="3" width="1" height="1"/>
            <rect x="14" y="3" width="1" height="1"/>
            <rect x="15" y="3" width="1" height="1"/>
            <rect x="16" y="3" width="1" height="1"/>
            <rect x="22" y="3" width="1" height="1"/>
            <rect x="30" y="3" width="1" height="1"/>
            <rect x="37" y="3" width="1" height="1"/>
            <rect x="38" y="3" width="1" height="1"/>
            <rect x="39" y="3" width="1" height="1"/>
            <rect x="40" y="3" width="1" height="1"/>
            <rect x="41" y="3" width="1" height="1"/>
            <rect x="44" y="3" width="1" height="1"/>
            <rect x="45" y="3" width="1" height="1"/>
            <rect x="46" y="3" width="1" height="1"/>
            <rect x="47" y="3" width="1" height="1"/>
            <rect x="52" y="3" width="1" height="1"/>
            <rect x="53" y="3" width="1" height="1"/>
            <rect x="54" y="3" width="1" height="1"/>

            <rect x="0" y="4" width="1" height="1"/>
            <rect x="7" y="4" width="1" height="1"/>
            <rect x="11" y="4" width="1" height="1"/>
            <rect x="14" y="4" width="1" height="1"/>
            <rect x="22" y="4" width="1" height="1"/>
            <rect x="30" y="4" width="1" height="1"/>
            <rect x="37" y="4" width="1" height="1"/>
            <rect x="41" y="4" width="1" height="1"/>
            <rect x="44" y="4" width="1" height="1"/>
            <rect x="48" y="4" width="1" height="1"/>
            <rect x="55" y="4" width="1" height="1"/>
        </symbol>

        <symbol id="row3">
            <rect x="0" y="5" width="1" height="1"/>
            <rect x="7" y="5" width="1" height="1"/>
            <rect x="11" y="5" width="1" height="1"/>
            <rect x="14" y="5" width="1" height="1"/>
            <rect x="22" y="5" width="1" height="1"/>
            <rect x="30" y="5" width="1" height="1"/>
            <rect x="37" y="5" width="1" height="1"/>
            <rect x="41" y="5" width="1" height="1"/>
            <rect x="44" y="5" width="1" height="1"/>
            <rect x="48" y="5" width="1" height="1"/>
            <rect x="55" y="5" width="1" height="1"/>

            <rect x="0" y="6" width="1" height="1"/>
            <rect x="1" y="6" width="1" height="1"/>
            <rect x="2" y="6" width="1" height="1"/>
            <rect x="3" y="6" width="1" height="1"/>
            <rect x="4" y="6" width="1" height="1"/>
            <rect x="8" y="6" width="1" height="1"/>
            <rect x="9" y="6" width="1" height="1"/>
            <rect x="10" y="6" width="1" height="1"/>
            <rect x="14" y="6" width="1" height="1"/>
            <rect x="21" y="6" width="1" height="1"/>
            <rect x="22" y="6" width="1" height="1"/>
            <rect x="23" y="6" width="1" height="1"/>
            <rect x="30" y="6" width="1" height="1"/>
            <rect x="31" y="6" width="1" height="1"/>
            <rect x="32" y="6" width="1" height="1"/>
            <rect x="33" y="6" width="1" height="1"/>
            <rect x="34" y="6" width="1" height="1"/>
            <rect x="37" y="6" width="1" height="1"/>
            <rect x="41" y="6" width="1" height="1"/>
            <rect x="44" y="6" width="1" height="1"/>
            <rect x="45" y="6" width="1" height="1"/>
            <rect x="46" y="6" width="1" height="1"/>
            <rect x="47" y="6" width="1" height="1"/>
            <rect x="51" y="6" width="1" height="1"/>
            <rect x="52" y="6" width="1" height="1"/>
            <rect x="53" y="6" width="1" height="1"/>
            <rect x="54" y="6" width="1" height="1"/>
        </symbol>
    </defs>

    <g transform="translate(0.2,0.2)">
        <g fill="#aaa">
            <use xlink:href="#row1"/>
            <use xlink:href="#row2"/>
            <use xlink:href="#row3"/>
        </g>
    </g>

    <g fill="#212529">
        <use xlink:href="#row1"/>
        <use xlink:href="#row2"/>
        <use xlink:href="#row3"/>
    </g>

</svg>
