<svg viewBox="0 0 57 7" xmlns="http://www.w3.org/2000/svg">
    <g fill="#212529">
        <rect x="1" y="0" width="1" height="1"/>
        <rect x="2" y="0" width="1" height="1"/>
        <rect x="3" y="0" width="1" height="1"/>
        <rect x="4" y="0" width="1" height="1"/>
        <rect x="8" y="0" width="1" height="1"/>
        <rect x="12" y="0" width="1" height="1"/>
        <rect x="17" y="0" width="1" height="1"/>
        <rect x="18" y="0" width="1" height="1"/>
        <rect x="19" y="0" width="1" height="1"/>
        <rect x="20" y="0" width="1" height="1"/>
        <rect x="24" y="0" width="1" height="1"/>
        <rect x="25" y="0" width="1" height="1"/>
        <rect x="26" y="0" width="1" height="1"/>
        <rect x="27" y="0" width="1" height="1"/>
        <rect x="28" y="0" width="1" height="1"/>
        <rect x="29" y="0" width="1" height="1"/>
        <rect x="30" y="0" width="1" height="1"/>
        <rect x="34" y="0" width="1" height="1"/>
        <rect x="35" y="0" width="1" height="1"/>
        <rect x="36" y="0" width="1" height="1"/>
        <rect x="37" y="0" width="1" height="1"/>
        <rect x="38" y="0" width="1" height="1"/>
        <rect x="42" y="0" width="1" height="1"/>
        <rect x="46" y="0" width="1" height="1"/>
        <rect x="52" y="0" width="1" height="1"/>
        <rect x="53" y="0" width="1" height="1"/>
        <rect x="54" y="0" width="1" height="1"/>
        <rect x="55" y="0" width="1" height="1"/>

        <rect x="0" y="1" width="1" height="1"/>
        <rect x="8" y="1" width="1" height="1"/>
        <rect x="12" y="1" width="1" height="1"/>
        <rect x="16" y="1" width="1" height="1"/>
        <rect x="27" y="1" width="1" height="1"/>
        <rect x="34" y="1" width="1" height="1"/>
        <rect x="42" y="1" width="1" height="1"/>
        <rect x="43" y="1" width="1" height="1"/>
        <rect x="45" y="1" width="1" height="1"/>
        <rect x="46" y="1" width="1" height="1"/>
        <rect x="56" y="1" width="1" height="1"/>

        <rect x="0" y="2" width="1" height="1"/>
        <rect x="9" y="2" width="1" height="1"/>
        <rect x="11" y="2" width="1" height="1"/>
        <rect x="16" y="2" width="1" height="1"/>
        <rect x="27" y="2" width="1" height="1"/>
        <rect x="34" y="2" width="1" height="1"/>
        <rect x="42" y="2" width="1" height="1"/>
        <rect x="44" y="2" width="1" height="1"/>
        <rect x="46" y="2" width="1" height="1"/>
        <rect x="56" y="2" width="1" height="1"/>

        <rect x="1" y="3" width="1" height="1"/>
        <rect x="2" y="3" width="1" height="1"/>
        <rect x="3" y="3" width="1" height="1"/>
        <rect x="10" y="3" width="1" height="1"/>
        <rect x="17" y="3" width="1" height="1"/>
        <rect x="18" y="3" width="1" height="1"/>
        <rect x="19" y="3" width="1" height="1"/>
        <rect x="27" y="3" width="1" height="1"/>
        <rect x="34" y="3" width="1" height="1"/>
        <rect x="35" y="3" width="1" height="1"/>
        <rect x="36" y="3" width="1" height="1"/>
        <rect x="37" y="3" width="1" height="1"/>
        <rect x="42" y="3" width="1" height="1"/>
        <rect x="46" y="3" width="1" height="1"/>
        <rect x="53" y="3" width="1" height="1"/>
        <rect x="54" y="3" width="1" height="1"/>
        <rect x="55" y="3" width="1" height="1"/>

        <rect x="4" y="4" width="1" height="1"/>
        <rect x="10" y="4" width="1" height="1"/>
        <rect x="20" y="4" width="1" height="1"/>
        <rect x="27" y="4" width="1" height="1"/>
        <rect x="34" y="4" width="1" height="1"/>
        <rect x="42" y="4" width="1" height="1"/>
        <rect x="46" y="4" width="1" height="1"/>
        <rect x="56" y="4" width="1" height="1"/>

        <rect x="4" y="5" width="1" height="1"/>
        <rect x="10" y="5" width="1" height="1"/>
        <rect x="20" y="5" width="1" height="1"/>
        <rect x="27" y="5" width="1" height="1"/>
        <rect x="34" y="5" width="1" height="1"/>
        <rect x="42" y="5" width="1" height="1"/>
        <rect x="46" y="5" width="1" height="1"/>
        <rect x="56" y="5" width="1" height="1"/>

        <rect x="0" y="6" width="1" height="1"/>
        <rect x="1" y="6" width="1" height="1"/>
        <rect x="2" y="6" width="1" height="1"/>
        <rect x="3" y="6" width="1" height="1"/>
        <rect x="10" y="6" width="1" height="1"/>
        <rect x="16" y="6" width="1" height="1"/>
        <rect x="17" y="6" width="1" height="1"/>
        <rect x="18" y="6" width="1" height="1"/>
        <rect x="19" y="6" width="1" height="1"/>
        <rect x="27" y="6" width="1" height="1"/>
        <rect x="34" y="6" width="1" height="1"/>
        <rect x="35" y="6" width="1" height="1"/>
        <rect x="36" y="6" width="1" height="1"/>
        <rect x="37" y="6" width="1" height="1"/>
        <rect x="38" y="6" width="1" height="1"/>
        <rect x="42" y="6" width="1" height="1"/>
        <rect x="46" y="6" width="1" height="1"/>
        <rect x="52" y="6" width="1" height="1"/>
        <rect x="53" y="6" width="1" height="1"/>
        <rect x="54" y="6" width="1" height="1"/>
        <rect x="55" y="6" width="1" height="1"/>
    </g>
</svg>