# MagicaVoxel @ Ephtracy

# group
o 

# material
mtllib s3v3_5_5_fxbutton.vox.mtl
usemtl palette

# normals
vn -1 0 0
vn 1 0 0
vn 0 0 1
vn 0 0 -1
vn 0 -1 0
vn 0 1 0

# texcoords
vt 0.306641 0.5
vt 0.767578 0.5

# verts
v -6.3 2.7 3.5
v -6.3 2.7 2
v -6.3 3 3.5
v -6.3 3 2
v -6.2 3 3.4
v -6.2 3 2.1
v -6.2 3.1 3.4
v -6.2 3.1 2.1
v -5.6 3 3
v -5.6 3 2.8
v -5.6 3 2.7
v -5.6 3 2.6
v -5.6 3.1 3
v -5.6 3.1 2.8
v -5.6 3.1 2.7
v -5.6 3.1 2.6
v -5.5 3 2.8
v -5.5 3 2.7
v -5.5 3.1 2.8
v -5.5 3.1 2.7
v -5.4 3 2.6
v -5.4 3 2.5
v -5.4 3.1 2.6
v -5.4 3.1 2.5
v -5.2 3 3
v -5.2 3 2.8
v -5.2 3 2.7
v -5.2 3 2.5
v -5.2 3.1 3
v -5.2 3.1 2.8
v -5.2 3.1 2.7
v -5.2 3.1 2.5
v -5.1 3 2.8
v -5.1 3 2.7
v -5.1 3.1 2.8
v -5.1 3.1 2.7
v -5 3 3
v -5 3 2.8
v -5 3 2.7
v -5 3 2.5
v -5 3.1 3
v -5 3.1 2.8
v -5 3.1 2.7
v -5 3.1 2.5
v -4.2 2.7 2.9
v -4.2 2.7 2.6
v -4.2 3.1 2.9
v -4.2 3.1 2.6
v -5.7 3 3
v -5.7 3 2.5
v -5.7 3.1 3
v -5.7 3.1 2.5
v -5.3 3 3
v -5.3 3 2.8
v -5.3 3 2.7
v -5.3 3 2.5
v -5.3 3.1 3
v -5.3 3.1 2.8
v -5.3 3.1 2.7
v -5.3 3.1 2.5
v -5.2 3 2.8
v -5.2 3 2.7
v -5.2 3.1 2.8
v -5.2 3.1 2.7
v -5.1 3 3
v -5.1 3 2.8
v -5.1 3 2.7
v -5.1 3 2.5
v -5.1 3.1 3
v -5.1 3.1 2.8
v -5.1 3.1 2.7
v -5.1 3.1 2.5
v -4.5 2.7 2.9
v -4.5 2.7 2.6
v -4.5 3.1 2.9
v -4.5 3.1 2.6
v -3.4 3 3.4
v -3.4 3 2.1
v -3.4 3.1 3.4
v -3.4 3.1 2.1
v -3.3 2.7 3.5
v -3.3 2.7 2
v -3.3 3 3.5
v -3.3 3 2
v -6.3 2.7 3.5
v -6.3 3 3.5
v -3.3 2.7 3.5
v -3.3 3 3.5
v -6.2 3 3.4
v -6.2 3.1 3.4
v -3.4 3 3.4
v -3.4 3.1 3.4
v -5.3 3 2.8
v -5.3 3.1 2.8
v -5.2 3 2.8
v -5.2 3.1 2.8
v -5.1 3 2.8
v -5.1 3.1 2.8
v -5 3 2.8
v -5 3.1 2.8
v -5.6 3 2.7
v -5.6 3.1 2.7
v -5.5 3 2.7
v -5.5 3.1 2.7
v -5.2 3 2.7
v -5.2 3.1 2.7
v -5.1 3 2.7
v -5.1 3.1 2.7
v -4.5 2.7 2.6
v -4.5 3.1 2.6
v -4.2 2.7 2.6
v -4.2 3.1 2.6
v -5.7 3 2.5
v -5.7 3.1 2.5
v -5.4 3 2.5
v -5.4 3.1 2.5
v -5.3 3 2.5
v -5.3 3.1 2.5
v -5.2 3 2.5
v -5.2 3.1 2.5
v -5.1 3 2.5
v -5.1 3.1 2.5
v -5 3 2.5
v -5 3.1 2.5
v -5.7 3 3
v -5.7 3.1 3
v -5.6 3 3
v -5.6 3.1 3
v -5.3 3 3
v -5.3 3.1 3
v -5.2 3 3
v -5.2 3.1 3
v -5.1 3 3
v -5.1 3.1 3
v -5 3 3
v -5 3.1 3
v -4.5 2.7 2.9
v -4.5 3.1 2.9
v -4.2 2.7 2.9
v -4.2 3.1 2.9
v -5.6 3 2.8
v -5.6 3.1 2.8
v -5.5 3 2.8
v -5.5 3.1 2.8
v -5.2 3 2.8
v -5.2 3.1 2.8
v -5.1 3 2.8
v -5.1 3.1 2.8
v -5.3 3 2.7
v -5.3 3.1 2.7
v -5.2 3 2.7
v -5.2 3.1 2.7
v -5.1 3 2.7
v -5.1 3.1 2.7
v -5 3 2.7
v -5 3.1 2.7
v -5.6 3 2.6
v -5.6 3.1 2.6
v -5.4 3 2.6
v -5.4 3.1 2.6
v -6.2 3 2.1
v -6.2 3.1 2.1
v -3.4 3 2.1
v -3.4 3.1 2.1
v -6.3 2.7 2
v -6.3 3 2
v -3.3 2.7 2
v -3.3 3 2
v -6.3 2.7 3.5
v -3.3 2.7 3.5
v -4.5 2.7 2.9
v -4.2 2.7 2.9
v -4.5 2.7 2.6
v -4.2 2.7 2.6
v -6.3 2.7 2
v -3.3 2.7 2
v -6.3 3 3.5
v -3.3 3 3.5
v -6.2 3 3.4
v -3.4 3 3.4
v -5.7 3 3
v -5.6 3 3
v -5.3 3 3
v -5.2 3 3
v -5.1 3 3
v -5 3 3
v -5.6 3 2.8
v -5.5 3 2.8
v -5.3 3 2.8
v -5.2 3 2.8
v -5.1 3 2.8
v -5 3 2.8
v -5.6 3 2.7
v -5.5 3 2.7
v -5.3 3 2.7
v -5.2 3 2.7
v -5.1 3 2.7
v -5 3 2.7
v -5.6 3 2.6
v -5.4 3 2.6
v -5.7 3 2.5
v -5.4 3 2.5
v -5.3 3 2.5
v -5.2 3 2.5
v -5.1 3 2.5
v -5 3 2.5
v -6.2 3 2.1
v -3.4 3 2.1
v -6.3 3 2
v -3.3 3 2
v -6.2 3.1 3.4
v -3.4 3.1 3.4
v -5.7 3.1 3
v -5.6 3.1 3
v -5.3 3.1 3
v -5.2 3.1 3
v -5.1 3.1 3
v -5 3.1 3
v -4.5 3.1 2.9
v -4.2 3.1 2.9
v -5.6 3.1 2.8
v -5.5 3.1 2.8
v -5.3 3.1 2.8
v -5.2 3.1 2.8
v -5.1 3.1 2.8
v -5 3.1 2.8
v -5.6 3.1 2.7
v -5.5 3.1 2.7
v -5.3 3.1 2.7
v -5.2 3.1 2.7
v -5.1 3.1 2.7
v -5 3.1 2.7
v -5.6 3.1 2.6
v -5.4 3.1 2.6
v -4.5 3.1 2.6
v -4.2 3.1 2.6
v -5.7 3.1 2.5
v -5.4 3.1 2.5
v -5.3 3.1 2.5
v -5.2 3.1 2.5
v -5.1 3.1 2.5
v -5 3.1 2.5
v -6.2 3.1 2.1
v -3.4 3.1 2.1

# faces
f 3/2/1 2/2/1 1/2/1
f 4/2/1 2/2/1 3/2/1
f 7/2/1 6/2/1 5/2/1
f 8/2/1 6/2/1 7/2/1
f 13/2/1 10/2/1 9/2/1
f 14/2/1 10/2/1 13/2/1
f 15/2/1 12/2/1 11/2/1
f 16/2/1 12/2/1 15/2/1
f 19/2/1 18/2/1 17/2/1
f 20/2/1 18/2/1 19/2/1
f 23/2/1 22/2/1 21/2/1
f 24/2/1 22/2/1 23/2/1
f 29/2/1 26/2/1 25/2/1
f 30/2/1 26/2/1 29/2/1
f 31/2/1 28/2/1 27/2/1
f 32/2/1 28/2/1 31/2/1
f 35/2/1 34/2/1 33/2/1
f 36/2/1 34/2/1 35/2/1
f 41/2/1 38/2/1 37/2/1
f 42/2/1 38/2/1 41/2/1
f 43/2/1 40/2/1 39/2/1
f 44/2/1 40/2/1 43/2/1
f 47/2/1 46/2/1 45/2/1
f 48/2/1 46/2/1 47/2/1
f 49/2/2 50/2/2 51/2/2
f 51/2/2 50/2/2 52/2/2
f 53/2/2 54/2/2 57/2/2
f 57/2/2 54/2/2 58/2/2
f 55/2/2 56/2/2 59/2/2
f 59/2/2 56/2/2 60/2/2
f 61/2/2 62/2/2 63/2/2
f 63/2/2 62/2/2 64/2/2
f 65/2/2 66/2/2 69/2/2
f 69/2/2 66/2/2 70/2/2
f 67/2/2 68/2/2 71/2/2
f 71/2/2 68/2/2 72/2/2
f 73/2/2 74/2/2 75/2/2
f 75/2/2 74/2/2 76/2/2
f 77/2/2 78/2/2 79/2/2
f 79/2/2 78/2/2 80/2/2
f 81/2/2 82/2/2 83/2/2
f 83/2/2 82/2/2 84/2/2
f 87/2/3 86/2/3 85/2/3
f 88/2/3 86/2/3 87/2/3
f 91/2/3 90/2/3 89/2/3
f 92/2/3 90/2/3 91/2/3
f 95/2/3 94/2/3 93/2/3
f 96/2/3 94/2/3 95/2/3
f 99/2/3 98/2/3 97/2/3
f 100/2/3 98/2/3 99/2/3
f 103/2/3 102/2/3 101/2/3
f 104/2/3 102/2/3 103/2/3
f 107/2/3 106/2/3 105/2/3
f 108/2/3 106/2/3 107/2/3
f 111/2/3 110/2/3 109/2/3
f 112/2/3 110/2/3 111/2/3
f 115/2/3 114/2/3 113/2/3
f 116/2/3 114/2/3 115/2/3
f 119/2/3 118/2/3 117/2/3
f 120/2/3 118/2/3 119/2/3
f 123/2/3 122/2/3 121/2/3
f 124/2/3 122/2/3 123/2/3
f 125/2/4 126/2/4 127/2/4
f 127/2/4 126/2/4 128/2/4
f 129/2/4 130/2/4 131/2/4
f 131/2/4 130/2/4 132/2/4
f 133/2/4 134/2/4 135/2/4
f 135/2/4 134/2/4 136/2/4
f 137/2/4 138/2/4 139/2/4
f 139/2/4 138/2/4 140/2/4
f 141/2/4 142/2/4 143/2/4
f 143/2/4 142/2/4 144/2/4
f 145/2/4 146/2/4 147/2/4
f 147/2/4 146/2/4 148/2/4
f 149/2/4 150/2/4 151/2/4
f 151/2/4 150/2/4 152/2/4
f 153/2/4 154/2/4 155/2/4
f 155/2/4 154/2/4 156/2/4
f 157/2/4 158/2/4 159/2/4
f 159/2/4 158/2/4 160/2/4
f 161/2/4 162/2/4 163/2/4
f 163/2/4 162/2/4 164/2/4
f 165/2/4 166/2/4 167/2/4
f 167/2/4 166/2/4 168/2/4
f 171/2/5 170/2/5 169/2/5
f 172/2/5 170/2/5 171/2/5
f 173/2/5 171/2/5 169/2/5
f 174/2/5 170/2/5 172/2/5
f 175/2/5 173/2/5 169/2/5
f 175/2/5 174/2/5 173/2/5
f 176/2/5 170/2/5 174/2/5
f 176/2/5 174/2/5 175/2/5
f 177/2/6 178/2/6 179/2/6
f 179/2/6 178/2/6 180/2/6
f 181/2/6 182/2/6 187/2/6
f 183/2/6 184/2/6 189/2/6
f 189/2/6 184/2/6 190/2/6
f 185/2/6 186/2/6 191/2/6
f 191/2/6 186/2/6 192/2/6
f 187/2/6 188/2/6 193/2/6
f 181/2/6 187/2/6 193/2/6
f 193/2/6 188/2/6 194/2/6
f 190/2/6 191/2/6 196/2/6
f 196/2/6 191/2/6 197/2/6
f 181/2/6 193/2/6 199/2/6
f 181/2/6 199/2/6 201/2/6
f 199/2/6 200/2/6 201/2/6
f 201/2/6 200/2/6 202/2/6
f 195/2/6 196/2/6 203/2/6
f 203/2/6 196/2/6 204/2/6
f 197/2/6 198/2/6 205/2/6
f 205/2/6 198/2/6 206/2/6
f 177/2/6 179/2/6 207/2/6
f 180/2/6 178/2/6 208/2/6
f 177/2/6 207/2/6 209/2/6
f 207/2/6 208/2/6 209/2/6
f 208/2/6 178/2/6 210/2/6
f 209/2/6 208/2/6 210/2/6
f 211/2/6 212/2/6 213/2/6
f 213/2/6 212/2/6 214/2/6
f 214/2/6 212/2/6 215/2/6
f 215/2/6 212/2/6 216/2/6
f 216/2/6 212/2/6 217/2/6
f 217/2/6 212/2/6 218/2/6
f 218/2/6 212/2/6 219/2/6
f 219/2/6 212/2/6 220/2/6
f 214/2/6 215/2/6 221/2/6
f 221/2/6 215/2/6 222/2/6
f 222/2/6 215/2/6 223/2/6
f 216/2/6 217/2/6 224/2/6
f 224/2/6 217/2/6 225/2/6
f 218/2/6 219/2/6 226/2/6
f 222/2/6 223/2/6 228/2/6
f 223/2/6 224/2/6 228/2/6
f 228/2/6 224/2/6 229/2/6
f 229/2/6 224/2/6 230/2/6
f 225/2/6 226/2/6 231/2/6
f 226/2/6 219/2/6 232/2/6
f 231/2/6 226/2/6 232/2/6
f 227/2/6 228/2/6 233/2/6
f 228/2/6 229/2/6 233/2/6
f 233/2/6 229/2/6 234/2/6
f 232/2/6 219/2/6 235/2/6
f 220/2/6 212/2/6 236/2/6
f 211/2/6 213/2/6 237/2/6
f 234/2/6 229/2/6 238/2/6
f 238/2/6 229/2/6 239/2/6
f 230/2/6 231/2/6 240/2/6
f 240/2/6 231/2/6 241/2/6
f 235/2/6 236/2/6 242/2/6
f 232/2/6 235/2/6 242/2/6
f 240/2/6 241/2/6 243/2/6
f 241/2/6 242/2/6 243/2/6
f 239/2/6 240/2/6 243/2/6
f 211/2/6 237/2/6 243/2/6
f 238/2/6 239/2/6 243/2/6
f 237/2/6 238/2/6 243/2/6
f 242/2/6 236/2/6 244/2/6
f 243/2/6 242/2/6 244/2/6
f 236/2/6 212/2/6 244/2/6
